<?xml version="1.0" encoding="UTF-8"?>
<!-- Lucide Crown (ISC) — larger, lighter, thinner -->
<svg xmlns="http://www.w3.org/2000/svg" width="1024" height="1024" viewBox="0 0 1024 1024">
  <defs>
    <clipPath id="m"><rect x="100" y="100" width="824" height="824" rx="190" ry="190"/></clipPath>
  </defs>
  <g clip-path="url(#m)">
    <rect x="100" y="100" width="824" height="824" rx="190" ry="190" fill="#0A0A0A"/>
    <g transform="translate(512 506) scale(22.5) translate(-12 -12.1)">
      <g fill="none" stroke="#C8C8CE" stroke-width="1.7"
         stroke-linecap="round" stroke-linejoin="round">
        <path d="M11.562 3.266a.5.5 0 0 1 .876 0L15.39 8.87a1 1 0 0 0 1.516.294L21.183 5.5a.5.5 0 0 1 .798.519l-2.834 10.246a1 1 0 0 1-.956.734H5.81a1 1 0 0 1-.957-.734L2.02 6.02a.5.5 0 0 1 .798-.519l4.276 3.664a1 1 0 0 0 1.516-.294z"/>
        <path d="M5 21h14"/>
      </g>
      <circle cx="12" cy="2.05" r="1.15" fill="#C8C8CE"/>
    </g>
  </g>
</svg>
